<svg xmlns="http://www.w3.org/2000/svg" width="462" height="621">
<rect width="100%" height="100%" fill="white"/>
<polygon points="110.60,104.50 97.30,127.53 70.70,127.53 57.40,104.50 70.70,81.46 97.30,81.46" fill="none" stroke="#888" stroke-width="0.5"/>
<text x="84.00" y="90.50" font-size="6.16" text-anchor="middle" fill="#aaa" font-family="monospace">0101</text>
<polygon points="110.60,152.99 97.30,176.03 70.70,176.03 57.40,152.99 70.70,129.96 97.30,129.96" fill="none" stroke="#888" stroke-width="0.5"/>
<text x="84.00" y="138.99" font-size="6.16" text-anchor="middle" fill="#aaa" font-family="monospace">0102</text>
<polygon points="110.60,201.49 97.30,224.53 70.70,224.53 57.40,201.49 70.70,178.46 97.30,178.46" fill="none" stroke="#888" stroke-width="0.5"/>
<text x="84.00" y="187.49" font-size="6.16" text-anchor="middle" fill="#aaa" font-family="monospace">0103</text>
<polygon points="110.60,249.99 97.30,273.03 70.70,273.03 57.40,249.99 70.70,226.95 97.30,226.95" fill="none" stroke="#888" stroke-width="0.5"/>
<text x="84.00" y="235.99" font-size="6.16" text-anchor="middle" fill="#aaa" font-family="monospace">0104</text>
<polygon points="110.60,298.49 97.30,321.52 70.70,321.52 57.40,298.49 70.70,275.45 97.30,275.45" fill="none" stroke="#888" stroke-width="0.5"/>
<text x="84.00" y="284.49" font-size="6.16" text-anchor="middle" fill="#aaa" font-family="monospace">0105</text>
<polygon points="110.60,346.98 97.30,370.02 70.70,370.02 57.40,346.98 70.70,323.95 97.30,323.95" fill="none" stroke="#888" stroke-width="0.5"/>
<text x="84.00" y="332.98" font-size="6.16" text-anchor="middle" fill="#aaa" font-family="monospace">0106</text>
<polygon points="110.60,395.48 97.30,418.52 70.70,418.52 57.40,395.48 70.70,372.45 97.30,372.45" fill="none" stroke="#888" stroke-width="0.5"/>
<text x="84.00" y="381.48" font-size="6.16" text-anchor="middle" fill="#aaa" font-family="monospace">0107</text>
<polygon points="110.60,443.98 97.30,467.02 70.70,467.02 57.40,443.98 70.70,420.94 97.30,420.94" fill="none" stroke="#888" stroke-width="0.5"/>
<text x="84.00" y="429.98" font-size="6.16" text-anchor="middle" fill="#aaa" font-family="monospace">0108</text>
<polygon points="110.60,492.48 97.30,515.51 70.70,515.51 57.40,492.48 70.70,469.44 97.30,469.44" fill="none" stroke="#888" stroke-width="0.5"/>
<text x="84.00" y="478.48" font-size="6.16" text-anchor="middle" fill="#aaa" font-family="monospace">0109</text>
<polygon points="110.60,540.97 97.30,564.01 70.70,564.01 57.40,540.97 70.70,517.94 97.30,517.94" fill="none" stroke="#888" stroke-width="0.5"/>
<text x="84.00" y="526.97" font-size="6.16" text-anchor="middle" fill="#aaa" font-family="monospace">0110</text>
<polygon points="152.60,80.25 139.30,103.28 112.70,103.28 99.40,80.25 112.70,57.21 139.30,57.21" fill="none" stroke="#888" stroke-width="0.5"/>
<text x="126.00" y="66.25" font-size="6.16" text-anchor="middle" fill="#aaa" font-family="monospace">0201</text>
<polygon points="152.60,128.75 139.30,151.78 112.70,151.78 99.40,128.75 112.70,105.71 139.30,105.71" fill="none" stroke="#888" stroke-width="0.5"/>
<text x="126.00" y="114.75" font-size="6.16" text-anchor="middle" fill="#aaa" font-family="monospace">0202</text>
<polygon points="152.60,177.24 139.30,200.28 112.70,200.28 99.40,177.24 112.70,154.21 139.30,154.21" fill="none" stroke="#888" stroke-width="0.5"/>
<text x="126.00" y="163.24" font-size="6.16" text-anchor="middle" fill="#aaa" font-family="monospace">0203</text>
<polygon points="152.60,225.74 139.30,248.78 112.70,248.78 99.40,225.74 112.70,202.70 139.30,202.70" fill="none" stroke="#888" stroke-width="0.5"/>
<text x="126.00" y="211.74" font-size="6.16" text-anchor="middle" fill="#aaa" font-family="monospace">0204</text>
<polygon points="152.60,274.24 139.30,297.27 112.70,297.27 99.40,274.24 112.70,251.20 139.30,251.20" fill="none" stroke="#888" stroke-width="0.5"/>
<text x="126.00" y="260.24" font-size="6.16" text-anchor="middle" fill="#aaa" font-family="monospace">0205</text>
<polygon points="152.60,322.74 139.30,345.77 112.70,345.77 99.40,322.74 112.70,299.70 139.30,299.70" fill="none" stroke="#888" stroke-width="0.5"/>
<text x="126.00" y="308.74" font-size="6.16" text-anchor="middle" fill="#aaa" font-family="monospace">0206</text>
<polygon points="152.60,371.23 139.30,394.27 112.70,394.27 99.40,371.23 112.70,348.20 139.30,348.20" fill="none" stroke="#888" stroke-width="0.5"/>
<text x="126.00" y="357.23" font-size="6.16" text-anchor="middle" fill="#aaa" font-family="monospace">0207</text>
<polygon points="152.60,419.73 139.30,442.77 112.70,442.77 99.40,419.73 112.70,396.69 139.30,396.69" fill="none" stroke="#888" stroke-width="0.5"/>
<text x="126.00" y="405.73" font-size="6.16" text-anchor="middle" fill="#aaa" font-family="monospace">0208</text>
<polygon points="152.60,468.23 139.30,491.26 112.70,491.26 99.40,468.23 112.70,445.19 139.30,445.19" fill="none" stroke="#888" stroke-width="0.5"/>
<text x="126.00" y="454.23" font-size="6.16" text-anchor="middle" fill="#aaa" font-family="monospace">0209</text>
<polygon points="152.60,516.73 139.30,539.76 112.70,539.76 99.40,516.73 112.70,493.69 139.30,493.69" fill="none" stroke="#888" stroke-width="0.5"/>
<text x="126.00" y="502.73" font-size="6.16" text-anchor="middle" fill="#aaa" font-family="monospace">0210</text>
<polygon points="194.60,104.50 181.30,127.53 154.70,127.53 141.40,104.50 154.70,81.46 181.30,81.46" fill="none" stroke="#888" stroke-width="0.5"/>
<text x="168.00" y="90.50" font-size="6.16" text-anchor="middle" fill="#aaa" font-family="monospace">0301</text>
<polygon points="194.60,152.99 181.30,176.03 154.70,176.03 141.40,152.99 154.70,129.96 181.30,129.96" fill="none" stroke="#888" stroke-width="0.5"/>
<text x="168.00" y="138.99" font-size="6.16" text-anchor="middle" fill="#aaa" font-family="monospace">0302</text>
<polygon points="194.60,201.49 181.30,224.53 154.70,224.53 141.40,201.49 154.70,178.46 181.30,178.46" fill="none" stroke="#888" stroke-width="0.5"/>
<text x="168.00" y="187.49" font-size="6.16" text-anchor="middle" fill="#aaa" font-family="monospace">0303</text>
<polygon points="194.60,249.99 181.30,273.03 154.70,273.03 141.40,249.99 154.70,226.95 181.30,226.95" fill="none" stroke="#888" stroke-width="0.5"/>
<text x="168.00" y="235.99" font-size="6.16" text-anchor="middle" fill="#aaa" font-family="monospace">0304</text>
<polygon points="194.60,298.49 181.30,321.52 154.70,321.52 141.40,298.49 154.70,275.45 181.30,275.45" fill="none" stroke="#888" stroke-width="0.5"/>
<text x="168.00" y="284.49" font-size="6.16" text-anchor="middle" fill="#aaa" font-family="monospace">0305</text>
<polygon points="194.60,346.98 181.30,370.02 154.70,370.02 141.40,346.98 154.70,323.95 181.30,323.95" fill="none" stroke="#888" stroke-width="0.5"/>
<text x="168.00" y="332.98" font-size="6.16" text-anchor="middle" fill="#aaa" font-family="monospace">0306</text>
<polygon points="194.60,395.48 181.30,418.52 154.70,418.52 141.40,395.48 154.70,372.45 181.30,372.45" fill="none" stroke="#888" stroke-width="0.5"/>
<text x="168.00" y="381.48" font-size="6.16" text-anchor="middle" fill="#aaa" font-family="monospace">0307</text>
<polygon points="194.60,443.98 181.30,467.02 154.70,467.02 141.40,443.98 154.70,420.94 181.30,420.94" fill="none" stroke="#888" stroke-width="0.5"/>
<text x="168.00" y="429.98" font-size="6.16" text-anchor="middle" fill="#aaa" font-family="monospace">0308</text>
<polygon points="194.60,492.48 181.30,515.51 154.70,515.51 141.40,492.48 154.70,469.44 181.30,469.44" fill="none" stroke="#888" stroke-width="0.5"/>
<text x="168.00" y="478.48" font-size="6.16" text-anchor="middle" fill="#aaa" font-family="monospace">0309</text>
<polygon points="194.60,540.97 181.30,564.01 154.70,564.01 141.40,540.97 154.70,517.94 181.30,517.94" fill="none" stroke="#888" stroke-width="0.5"/>
<text x="168.00" y="526.97" font-size="6.16" text-anchor="middle" fill="#aaa" font-family="monospace">0310</text>
<polygon points="236.60,80.25 223.30,103.28 196.70,103.28 183.40,80.25 196.70,57.21 223.30,57.21" fill="none" stroke="#888" stroke-width="0.5"/>
<text x="210.00" y="66.25" font-size="6.16" text-anchor="middle" fill="#aaa" font-family="monospace">0401</text>
<polygon points="236.60,128.75 223.30,151.78 196.70,151.78 183.40,128.75 196.70,105.71 223.30,105.71" fill="none" stroke="#888" stroke-width="0.5"/>
<text x="210.00" y="114.75" font-size="6.16" text-anchor="middle" fill="#aaa" font-family="monospace">0402</text>
<polygon points="236.60,177.24 223.30,200.28 196.70,200.28 183.40,177.24 196.70,154.21 223.30,154.21" fill="none" stroke="#888" stroke-width="0.5"/>
<text x="210.00" y="163.24" font-size="6.16" text-anchor="middle" fill="#aaa" font-family="monospace">0403</text>
<polygon points="236.60,225.74 223.30,248.78 196.70,248.78 183.40,225.74 196.70,202.70 223.30,202.70" fill="none" stroke="#888" stroke-width="0.5"/>
<text x="210.00" y="211.74" font-size="6.16" text-anchor="middle" fill="#aaa" font-family="monospace">0404</text>
<polygon points="236.60,274.24 223.30,297.27 196.70,297.27 183.40,274.24 196.70,251.20 223.30,251.20" fill="none" stroke="#888" stroke-width="0.5"/>
<text x="210.00" y="260.24" font-size="6.16" text-anchor="middle" fill="#aaa" font-family="monospace">0405</text>
<polygon points="236.60,322.74 223.30,345.77 196.70,345.77 183.40,322.74 196.70,299.70 223.30,299.70" fill="none" stroke="#888" stroke-width="0.5"/>
<text x="210.00" y="308.74" font-size="6.16" text-anchor="middle" fill="#aaa" font-family="monospace">0406</text>
<polygon points="236.60,371.23 223.30,394.27 196.70,394.27 183.40,371.23 196.70,348.20 223.30,348.20" fill="none" stroke="#888" stroke-width="0.5"/>
<text x="210.00" y="357.23" font-size="6.16" text-anchor="middle" fill="#aaa" font-family="monospace">0407</text>
<polygon points="236.60,419.73 223.30,442.77 196.70,442.77 183.40,419.73 196.70,396.69 223.30,396.69" fill="none" stroke="#888" stroke-width="0.5"/>
<text x="210.00" y="405.73" font-size="6.16" text-anchor="middle" fill="#aaa" font-family="monospace">0408</text>
<polygon points="236.60,468.23 223.30,491.26 196.70,491.26 183.40,468.23 196.70,445.19 223.30,445.19" fill="none" stroke="#888" stroke-width="0.5"/>
<text x="210.00" y="454.23" font-size="6.16" text-anchor="middle" fill="#aaa" font-family="monospace">0409</text>
<polygon points="236.60,516.73 223.30,539.76 196.70,539.76 183.40,516.73 196.70,493.69 223.30,493.69" fill="none" stroke="#888" stroke-width="0.5"/>
<text x="210.00" y="502.73" font-size="6.16" text-anchor="middle" fill="#aaa" font-family="monospace">0410</text>
<polygon points="278.60,104.50 265.30,127.53 238.70,127.53 225.40,104.50 238.70,81.46 265.30,81.46" fill="none" stroke="#888" stroke-width="0.5"/>
<text x="252.00" y="90.50" font-size="6.16" text-anchor="middle" fill="#aaa" font-family="monospace">0501</text>
<polygon points="278.60,152.99 265.30,176.03 238.70,176.03 225.40,152.99 238.70,129.96 265.30,129.96" fill="none" stroke="#888" stroke-width="0.5"/>
<text x="252.00" y="138.99" font-size="6.16" text-anchor="middle" fill="#aaa" font-family="monospace">0502</text>
<polygon points="278.60,201.49 265.30,224.53 238.70,224.53 225.40,201.49 238.70,178.46 265.30,178.46" fill="none" stroke="#888" stroke-width="0.5"/>
<text x="252.00" y="187.49" font-size="6.16" text-anchor="middle" fill="#aaa" font-family="monospace">0503</text>
<polygon points="278.60,249.99 265.30,273.03 238.70,273.03 225.40,249.99 238.70,226.95 265.30,226.95" fill="none" stroke="#888" stroke-width="0.5"/>
<text x="252.00" y="235.99" font-size="6.16" text-anchor="middle" fill="#aaa" font-family="monospace">0504</text>
<polygon points="278.60,298.49 265.30,321.52 238.70,321.52 225.40,298.49 238.70,275.45 265.30,275.45" fill="none" stroke="#888" stroke-width="0.5"/>
<text x="252.00" y="284.49" font-size="6.16" text-anchor="middle" fill="#aaa" font-family="monospace">0505</text>
<polygon points="278.60,346.98 265.30,370.02 238.70,370.02 225.40,346.98 238.70,323.95 265.30,323.95" fill="none" stroke="#888" stroke-width="0.5"/>
<text x="252.00" y="332.98" font-size="6.16" text-anchor="middle" fill="#aaa" font-family="monospace">0506</text>
<polygon points="278.60,395.48 265.30,418.52 238.70,418.52 225.40,395.48 238.70,372.45 265.30,372.45" fill="none" stroke="#888" stroke-width="0.5"/>
<text x="252.00" y="381.48" font-size="6.16" text-anchor="middle" fill="#aaa" font-family="monospace">0507</text>
<polygon points="278.60,443.98 265.30,467.02 238.70,467.02 225.40,443.98 238.70,420.94 265.30,420.94" fill="none" stroke="#888" stroke-width="0.5"/>
<text x="252.00" y="429.98" font-size="6.16" text-anchor="middle" fill="#aaa" font-family="monospace">0508</text>
<polygon points="278.60,492.48 265.30,515.51 238.70,515.51 225.40,492.48 238.70,469.44 265.30,469.44" fill="none" stroke="#888" stroke-width="0.5"/>
<text x="252.00" y="478.48" font-size="6.16" text-anchor="middle" fill="#aaa" font-family="monospace">0509</text>
<polygon points="278.60,540.97 265.30,564.01 238.70,564.01 225.40,540.97 238.70,517.94 265.30,517.94" fill="none" stroke="#888" stroke-width="0.5"/>
<text x="252.00" y="526.97" font-size="6.16" text-anchor="middle" fill="#aaa" font-family="monospace">0510</text>
<polygon points="320.60,80.25 307.30,103.28 280.70,103.28 267.40,80.25 280.70,57.21 307.30,57.21" fill="none" stroke="#888" stroke-width="0.5"/>
<text x="294.00" y="66.25" font-size="6.16" text-anchor="middle" fill="#aaa" font-family="monospace">0601</text>
<polygon points="320.60,128.75 307.30,151.78 280.70,151.78 267.40,128.75 280.70,105.71 307.30,105.71" fill="none" stroke="#888" stroke-width="0.5"/>
<text x="294.00" y="114.75" font-size="6.16" text-anchor="middle" fill="#aaa" font-family="monospace">0602</text>
<polygon points="320.60,177.24 307.30,200.28 280.70,200.28 267.40,177.24 280.70,154.21 307.30,154.21" fill="none" stroke="#888" stroke-width="0.5"/>
<text x="294.00" y="163.24" font-size="6.16" text-anchor="middle" fill="#aaa" font-family="monospace">0603</text>
<polygon points="320.60,225.74 307.30,248.78 280.70,248.78 267.40,225.74 280.70,202.70 307.30,202.70" fill="none" stroke="#888" stroke-width="0.5"/>
<text x="294.00" y="211.74" font-size="6.16" text-anchor="middle" fill="#aaa" font-family="monospace">0604</text>
<polygon points="320.60,274.24 307.30,297.27 280.70,297.27 267.40,274.24 280.70,251.20 307.30,251.20" fill="none" stroke="#888" stroke-width="0.5"/>
<text x="294.00" y="260.24" font-size="6.16" text-anchor="middle" fill="#aaa" font-family="monospace">0605</text>
<polygon points="320.60,322.74 307.30,345.77 280.70,345.77 267.40,322.74 280.70,299.70 307.30,299.70" fill="none" stroke="#888" stroke-width="0.5"/>
<text x="294.00" y="308.74" font-size="6.16" text-anchor="middle" fill="#aaa" font-family="monospace">0606</text>
<polygon points="320.60,371.23 307.30,394.27 280.70,394.27 267.40,371.23 280.70,348.20 307.30,348.20" fill="none" stroke="#888" stroke-width="0.5"/>
<text x="294.00" y="357.23" font-size="6.16" text-anchor="middle" fill="#aaa" font-family="monospace">0607</text>
<polygon points="320.60,419.73 307.30,442.77 280.70,442.77 267.40,419.73 280.70,396.69 307.30,396.69" fill="none" stroke="#888" stroke-width="0.5"/>
<text x="294.00" y="405.73" font-size="6.16" text-anchor="middle" fill="#aaa" font-family="monospace">0608</text>
<polygon points="320.60,468.23 307.30,491.26 280.70,491.26 267.40,468.23 280.70,445.19 307.30,445.19" fill="none" stroke="#888" stroke-width="0.5"/>
<text x="294.00" y="454.23" font-size="6.16" text-anchor="middle" fill="#aaa" font-family="monospace">0609</text>
<polygon points="320.60,516.73 307.30,539.76 280.70,539.76 267.40,516.73 280.70,493.69 307.30,493.69" fill="none" stroke="#888" stroke-width="0.5"/>
<text x="294.00" y="502.73" font-size="6.16" text-anchor="middle" fill="#aaa" font-family="monospace">0610</text>
<polygon points="362.60,104.50 349.30,127.53 322.70,127.53 309.40,104.50 322.70,81.46 349.30,81.46" fill="none" stroke="#888" stroke-width="0.5"/>
<text x="336.00" y="90.50" font-size="6.16" text-anchor="middle" fill="#aaa" font-family="monospace">0701</text>
<polygon points="362.60,152.99 349.30,176.03 322.70,176.03 309.40,152.99 322.70,129.96 349.30,129.96" fill="none" stroke="#888" stroke-width="0.5"/>
<text x="336.00" y="138.99" font-size="6.16" text-anchor="middle" fill="#aaa" font-family="monospace">0702</text>
<polygon points="362.60,201.49 349.30,224.53 322.70,224.53 309.40,201.49 322.70,178.46 349.30,178.46" fill="none" stroke="#888" stroke-width="0.5"/>
<text x="336.00" y="187.49" font-size="6.16" text-anchor="middle" fill="#aaa" font-family="monospace">0703</text>
<polygon points="362.60,249.99 349.30,273.03 322.70,273.03 309.40,249.99 322.70,226.95 349.30,226.95" fill="none" stroke="#888" stroke-width="0.5"/>
<text x="336.00" y="235.99" font-size="6.16" text-anchor="middle" fill="#aaa" font-family="monospace">0704</text>
<polygon points="362.60,298.49 349.30,321.52 322.70,321.52 309.40,298.49 322.70,275.45 349.30,275.45" fill="none" stroke="#888" stroke-width="0.5"/>
<text x="336.00" y="284.49" font-size="6.16" text-anchor="middle" fill="#aaa" font-family="monospace">0705</text>
<polygon points="362.60,346.98 349.30,370.02 322.70,370.02 309.40,346.98 322.70,323.95 349.30,323.95" fill="none" stroke="#888" stroke-width="0.5"/>
<text x="336.00" y="332.98" font-size="6.16" text-anchor="middle" fill="#aaa" font-family="monospace">0706</text>
<polygon points="362.60,395.48 349.30,418.52 322.70,418.52 309.40,395.48 322.70,372.45 349.30,372.45" fill="none" stroke="#888" stroke-width="0.5"/>
<text x="336.00" y="381.48" font-size="6.16" text-anchor="middle" fill="#aaa" font-family="monospace">0707</text>
<polygon points="362.60,443.98 349.30,467.02 322.70,467.02 309.40,443.98 322.70,420.94 349.30,420.94" fill="none" stroke="#888" stroke-width="0.5"/>
<text x="336.00" y="429.98" font-size="6.16" text-anchor="middle" fill="#aaa" font-family="monospace">0708</text>
<polygon points="362.60,492.48 349.30,515.51 322.70,515.51 309.40,492.48 322.70,469.44 349.30,469.44" fill="none" stroke="#888" stroke-width="0.5"/>
<text x="336.00" y="478.48" font-size="6.16" text-anchor="middle" fill="#aaa" font-family="monospace">0709</text>
<polygon points="362.60,540.97 349.30,564.01 322.70,564.01 309.40,540.97 322.70,517.94 349.30,517.94" fill="none" stroke="#888" stroke-width="0.5"/>
<text x="336.00" y="526.97" font-size="6.16" text-anchor="middle" fill="#aaa" font-family="monospace">0710</text>
<polygon points="404.60,80.25 391.30,103.28 364.70,103.28 351.40,80.25 364.70,57.21 391.30,57.21" fill="none" stroke="#888" stroke-width="0.5"/>
<text x="378.00" y="66.25" font-size="6.16" text-anchor="middle" fill="#aaa" font-family="monospace">0801</text>
<polygon points="404.60,128.75 391.30,151.78 364.70,151.78 351.40,128.75 364.70,105.71 391.30,105.71" fill="none" stroke="#888" stroke-width="0.5"/>
<text x="378.00" y="114.75" font-size="6.16" text-anchor="middle" fill="#aaa" font-family="monospace">0802</text>
<polygon points="404.60,177.24 391.30,200.28 364.70,200.28 351.40,177.24 364.70,154.21 391.30,154.21" fill="none" stroke="#888" stroke-width="0.5"/>
<text x="378.00" y="163.24" font-size="6.16" text-anchor="middle" fill="#aaa" font-family="monospace">0803</text>
<polygon points="404.60,225.74 391.30,248.78 364.70,248.78 351.40,225.74 364.70,202.70 391.30,202.70" fill="none" stroke="#888" stroke-width="0.5"/>
<text x="378.00" y="211.74" font-size="6.16" text-anchor="middle" fill="#aaa" font-family="monospace">0804</text>
<polygon points="404.60,274.24 391.30,297.27 364.70,297.27 351.40,274.24 364.70,251.20 391.30,251.20" fill="none" stroke="#888" stroke-width="0.5"/>
<text x="378.00" y="260.24" font-size="6.16" text-anchor="middle" fill="#aaa" font-family="monospace">0805</text>
<polygon points="404.60,322.74 391.30,345.77 364.70,345.77 351.40,322.74 364.70,299.70 391.30,299.70" fill="none" stroke="#888" stroke-width="0.5"/>
<text x="378.00" y="308.74" font-size="6.16" text-anchor="middle" fill="#aaa" font-family="monospace">0806</text>
<polygon points="404.60,371.23 391.30,394.27 364.70,394.27 351.40,371.23 364.70,348.20 391.30,348.20" fill="none" stroke="#888" stroke-width="0.5"/>
<text x="378.00" y="357.23" font-size="6.16" text-anchor="middle" fill="#aaa" font-family="monospace">0807</text>
<polygon points="404.60,419.73 391.30,442.77 364.70,442.77 351.40,419.73 364.70,396.69 391.30,396.69" fill="none" stroke="#888" stroke-width="0.5"/>
<text x="378.00" y="405.73" font-size="6.16" text-anchor="middle" fill="#aaa" font-family="monospace">0808</text>
<polygon points="404.60,468.23 391.30,491.26 364.70,491.26 351.40,468.23 364.70,445.19 391.30,445.19" fill="none" stroke="#888" stroke-width="0.5"/>
<text x="378.00" y="454.23" font-size="6.16" text-anchor="middle" fill="#aaa" font-family="monospace">0809</text>
<polygon points="404.60,516.73 391.30,539.76 364.70,539.76 351.40,516.73 364.70,493.69 391.30,493.69" fill="none" stroke="#888" stroke-width="0.5"/>
<text x="378.00" y="502.73" font-size="6.16" text-anchor="middle" fill="#aaa" font-family="monospace">0810</text>
<line x1="252.00" y1="492.48" x2="210.00" y2="468.23" stroke="#888" stroke-width="0.5" stroke-dasharray="4,2"/>
<line x1="210.00" y1="419.73" x2="210.00" y2="468.23" stroke="#888" stroke-width="0.5" stroke-dasharray="4,2"/>
<line x1="84.00" y1="395.48" x2="126.00" y2="419.73" stroke="#888" stroke-width="0.5" stroke-dasharray="4,2"/>
<line x1="210.00" y1="516.73" x2="210.00" y2="468.23" stroke="#888" stroke-width="0.5" stroke-dasharray="4,2"/>
<line x1="126.00" y1="419.73" x2="84.00" y2="443.98" stroke="#888" stroke-width="0.5" stroke-dasharray="4,2"/>
<line x1="126.00" y1="419.73" x2="168.00" y2="443.98" stroke="#888" stroke-width="0.5" stroke-dasharray="4,2"/>
<line x1="336.00" y1="104.50" x2="378.00" y2="128.75" stroke="#888" stroke-width="0.5" stroke-dasharray="4,2"/>
<line x1="336.00" y1="104.50" x2="336.00" y2="152.99" stroke="#888" stroke-width="0.5" stroke-dasharray="4,2"/>
<line x1="294.00" y1="274.24" x2="294.00" y2="225.74" stroke="#888" stroke-width="0.5" stroke-dasharray="4,2"/>
<line x1="168.00" y1="443.98" x2="210.00" y2="468.23" stroke="#888" stroke-width="0.5" stroke-dasharray="4,2"/>
<circle cx="84.00" cy="104.50" r="3.08" fill="#000"/>
<text x="84.00" y="110.66" font-size="5.32" text-anchor="middle" fill="#000" font-family="monospace">32M1V0P-1T</text>
<text x="84.00" y="117.94" font-size="6.72" text-anchor="middle" fill="#000" font-family="monospace">Uthivaiox</text>
<circle cx="84.00" cy="249.99" r="3.08" fill="#000"/>
<text x="84.00" y="256.15" font-size="5.32" text-anchor="middle" fill="#000" font-family="monospace">54M2L2W-0H</text>
<text x="84.00" y="263.43" font-size="6.72" text-anchor="middle" fill="#000" font-family="monospace">Saeaereol</text>
<circle cx="84.00" cy="298.49" r="3.08" fill="#000"/>
<text x="84.00" y="304.65" font-size="5.32" text-anchor="middle" fill="#000" font-family="monospace">42M0V0P-0H</text>
<text x="84.00" y="311.93" font-size="6.72" text-anchor="middle" fill="#000" font-family="monospace">Brkeieveik</text>
<circle cx="84.00" cy="346.98" r="3.08" fill="#000"/>
<text x="84.00" y="353.14" font-size="5.32" text-anchor="middle" fill="#000" font-family="monospace">43M0V0R-0H</text>
<text x="84.00" y="360.42" font-size="6.72" text-anchor="middle" fill="#000" font-family="monospace">Kni</text>
<circle cx="84.00" cy="395.48" r="3.08" fill="#000"/>
<text x="84.00" y="401.64" font-size="5.32" text-anchor="middle" fill="#000" font-family="monospace">32M2L2R-1H</text>
<text x="84.00" y="408.92" font-size="6.72" text-anchor="middle" fill="#000" font-family="monospace">Naer</text>
<circle cx="84.00" cy="443.98" r="3.08" fill="#000"/>
<text x="84.00" y="450.14" font-size="5.32" text-anchor="middle" fill="#000" font-family="monospace">22M1A3--1H</text>
<text x="84.00" y="457.42" font-size="6.72" text-anchor="middle" fill="#000" font-family="monospace">Mbraiosdrathobriaex</text>
<circle cx="126.00" cy="128.75" r="3.08" fill="#000"/>
<text x="126.00" y="134.91" font-size="5.32" text-anchor="middle" fill="#000" font-family="monospace">54X0V0P-0T</text>
<text x="126.00" y="142.19" font-size="6.72" text-anchor="middle" fill="#000" font-family="monospace">Susisdrix</text>
<circle cx="126.00" cy="177.24" r="3.08" fill="#000"/>
<text x="126.00" y="183.40" font-size="5.32" text-anchor="middle" fill="#000" font-family="monospace">43T1E1H-1H</text>
<text x="126.00" y="190.68" font-size="6.72" text-anchor="middle" fill="#000" font-family="monospace">Aethmneith</text>
<circle cx="126.00" cy="274.24" r="3.08" fill="#000"/>
<text x="126.00" y="280.40" font-size="5.32" text-anchor="middle" fill="#000" font-family="monospace">33T1E2H-1H</text>
<text x="126.00" y="287.68" font-size="6.72" text-anchor="middle" fill="#000" font-family="monospace">Olathdraiaol</text>
<circle cx="126.00" cy="371.23" r="3.08" fill="#000"/>
<text x="126.00" y="377.39" font-size="5.32" text-anchor="middle" fill="#000" font-family="monospace">53B0V2C-0H</text>
<text x="126.00" y="384.67" font-size="6.72" text-anchor="middle" fill="#000" font-family="monospace">Stroeisoreieix</text>
<circle cx="126.00" cy="419.73" r="3.08" fill="#000"/>
<text x="126.00" y="425.89" font-size="5.32" text-anchor="middle" fill="#000" font-family="monospace">32T1A5X-2H</text>
<text x="126.00" y="433.17" font-size="6.72" text-anchor="middle" fill="#000" font-family="monospace">Reiaesstroun</text>
<circle cx="126.00" cy="516.73" r="3.08" fill="#000"/>
<text x="126.00" y="522.89" font-size="5.32" text-anchor="middle" fill="#000" font-family="monospace">22I1E1--1H</text>
<text x="126.00" y="530.17" font-size="6.72" text-anchor="middle" fill="#000" font-family="monospace">Sailik</text>
<circle cx="168.00" cy="104.50" r="3.08" fill="#000"/>
<text x="168.00" y="110.66" font-size="5.32" text-anchor="middle" fill="#000" font-family="monospace">52I1V3--0H</text>
<text x="168.00" y="117.94" font-size="6.72" text-anchor="middle" fill="#000" font-family="monospace">Elibrthu</text>
<circle cx="168.00" cy="249.99" r="3.08" fill="#000"/>
<text x="168.00" y="256.15" font-size="5.32" text-anchor="middle" fill="#000" font-family="monospace">53C0V0W-0H</text>
<text x="168.00" y="263.43" font-size="6.72" text-anchor="middle" fill="#000" font-family="monospace">En</text>
<circle cx="168.00" cy="298.49" r="3.08" fill="#000"/>
<text x="168.00" y="304.65" font-size="5.32" text-anchor="middle" fill="#000" font-family="monospace">53X2A2P-0H</text>
<text x="168.00" y="311.93" font-size="6.72" text-anchor="middle" fill="#000" font-family="monospace">Eikabran</text>
<circle cx="168.00" cy="395.48" r="3.08" fill="#000"/>
<text x="168.00" y="401.64" font-size="5.32" text-anchor="middle" fill="#000" font-family="monospace">53I0V1--0H</text>
<text x="168.00" y="408.92" font-size="6.72" text-anchor="middle" fill="#000" font-family="monospace">Nthaeael</text>
<circle cx="168.00" cy="443.98" r="3.08" fill="#000"/>
<text x="168.00" y="450.14" font-size="5.32" text-anchor="middle" fill="#000" font-family="monospace">33M1A2--1H</text>
<text x="168.00" y="457.42" font-size="6.72" text-anchor="middle" fill="#000" font-family="monospace">Rueirivni</text>
<circle cx="210.00" cy="371.23" r="3.08" fill="#000"/>
<text x="210.00" y="377.39" font-size="5.32" text-anchor="middle" fill="#000" font-family="monospace">40M3A3W-1H</text>
<text x="210.00" y="384.67" font-size="6.72" text-anchor="middle" fill="#000" font-family="monospace">Ser</text>
<circle cx="210.00" cy="419.73" r="3.08" fill="#000"/>
<text x="210.00" y="425.89" font-size="5.32" text-anchor="middle" fill="#000" font-family="monospace">22M2A2--1H</text>
<text x="210.00" y="433.17" font-size="6.72" text-anchor="middle" fill="#000" font-family="monospace">Theinaun</text>
<circle cx="210.00" cy="468.23" r="3.08" fill="#000"/>
<text x="210.00" y="474.39" font-size="5.32" text-anchor="middle" fill="#000" font-family="monospace">21I3C1W-2H</text>
<text x="210.00" y="481.67" font-size="6.72" text-anchor="middle" fill="#000" font-family="monospace">Koloel</text>
<circle cx="210.00" cy="516.73" r="3.08" fill="#000"/>
<text x="210.00" y="522.89" font-size="5.32" text-anchor="middle" fill="#000" font-family="monospace">41M2C2R-1H</text>
<text x="210.00" y="530.17" font-size="6.72" text-anchor="middle" fill="#000" font-family="monospace">Kvun</text>
<circle cx="252.00" cy="104.50" r="3.08" fill="#000"/>
<text x="252.00" y="110.66" font-size="5.32" text-anchor="middle" fill="#000" font-family="monospace">52T1A4--1H</text>
<text x="252.00" y="117.94" font-size="6.72" text-anchor="middle" fill="#000" font-family="monospace">Dreinostrbreik</text>
<circle cx="252.00" cy="346.98" r="3.08" fill="#000"/>
<text x="252.00" y="353.14" font-size="5.32" text-anchor="middle" fill="#000" font-family="monospace">21C2L3W-1H</text>
<text x="252.00" y="360.42" font-size="6.72" text-anchor="middle" fill="#000" font-family="monospace">Straikidrelirstrus</text>
<circle cx="252.00" cy="395.48" r="3.08" fill="#000"/>
<text x="252.00" y="401.64" font-size="5.32" text-anchor="middle" fill="#000" font-family="monospace">43M1E2--0H</text>
<text x="252.00" y="408.92" font-size="6.72" text-anchor="middle" fill="#000" font-family="monospace">Drousaaenavuix</text>
<circle cx="252.00" cy="492.48" r="3.08" fill="#000"/>
<text x="252.00" y="498.64" font-size="5.32" text-anchor="middle" fill="#000" font-family="monospace">52I3L2R-1H</text>
<text x="252.00" y="505.92" font-size="6.72" text-anchor="middle" fill="#000" font-family="monospace">Outh</text>
<circle cx="294.00" cy="177.24" r="3.08" fill="#000"/>
<text x="294.00" y="183.40" font-size="5.32" text-anchor="middle" fill="#000" font-family="monospace">23M2C2H-1H</text>
<text x="294.00" y="190.68" font-size="6.72" text-anchor="middle" fill="#000" font-family="monospace">Melbrvei</text>
<circle cx="294.00" cy="225.74" r="3.08" fill="#000"/>
<text x="294.00" y="231.90" font-size="5.32" text-anchor="middle" fill="#000" font-family="monospace">33I1E0R-1H</text>
<text x="294.00" y="239.18" font-size="6.72" text-anchor="middle" fill="#000" font-family="monospace">Kexdrith</text>
<circle cx="294.00" cy="274.24" r="3.08" fill="#000"/>
<text x="294.00" y="280.40" font-size="5.32" text-anchor="middle" fill="#000" font-family="monospace">43T3S2--2H</text>
<text x="294.00" y="287.68" font-size="6.72" text-anchor="middle" fill="#000" font-family="monospace">Brirekstreik</text>
<circle cx="294.00" cy="371.23" r="3.08" fill="#000"/>
<text x="294.00" y="377.39" font-size="5.32" text-anchor="middle" fill="#000" font-family="monospace">52M0V0X-0H</text>
<text x="294.00" y="384.67" font-size="6.72" text-anchor="middle" fill="#000" font-family="monospace">Msaeastrosavil</text>
<circle cx="294.00" cy="419.73" r="3.08" fill="#000"/>
<text x="294.00" y="425.89" font-size="5.32" text-anchor="middle" fill="#000" font-family="monospace">54S0V0H-0H</text>
<text x="294.00" y="433.17" font-size="6.72" text-anchor="middle" fill="#000" font-family="monospace">Naianithstreix</text>
<circle cx="336.00" cy="104.50" r="3.08" fill="#000"/>
<text x="336.00" y="110.66" font-size="5.32" text-anchor="middle" fill="#000" font-family="monospace">11M2A3T-2H</text>
<text x="336.00" y="117.94" font-size="6.72" text-anchor="middle" fill="#000" font-family="monospace">Mstraeomiaesonthan</text>
<circle cx="336.00" cy="152.99" r="3.08" fill="#000"/>
<text x="336.00" y="159.15" font-size="5.32" text-anchor="middle" fill="#000" font-family="monospace">52T2A3R-1H</text>
<text x="336.00" y="166.43" font-size="6.72" text-anchor="middle" fill="#000" font-family="monospace">Drak</text>
<circle cx="336.00" cy="346.98" r="3.08" fill="#000"/>
<text x="336.00" y="353.14" font-size="5.32" text-anchor="middle" fill="#000" font-family="monospace">31M3L2P-1H</text>
<text x="336.00" y="360.42" font-size="6.72" text-anchor="middle" fill="#000" font-family="monospace">Eithendrek</text>
<circle cx="336.00" cy="395.48" r="3.08" fill="#000"/>
<text x="336.00" y="401.64" font-size="5.32" text-anchor="middle" fill="#000" font-family="monospace">53T1E1--1H</text>
<text x="336.00" y="408.92" font-size="6.72" text-anchor="middle" fill="#000" font-family="monospace">Draxivstror</text>
<circle cx="378.00" cy="80.25" r="3.08" fill="#000"/>
<text x="378.00" y="86.41" font-size="5.32" text-anchor="middle" fill="#000" font-family="monospace">54M2C1X-0T</text>
<text x="378.00" y="93.69" font-size="6.72" text-anchor="middle" fill="#000" font-family="monospace">Voththaeouth</text>
<circle cx="378.00" cy="128.75" r="3.08" fill="#000"/>
<text x="378.00" y="134.91" font-size="5.32" text-anchor="middle" fill="#000" font-family="monospace">32T1A2--1H</text>
<text x="378.00" y="142.19" font-size="6.72" text-anchor="middle" fill="#000" font-family="monospace">Uxakstra</text>
<circle cx="378.00" cy="225.74" r="3.08" fill="#000"/>
<text x="378.00" y="231.90" font-size="5.32" text-anchor="middle" fill="#000" font-family="monospace">41M1A2P-0H</text>
<text x="378.00" y="239.18" font-size="6.72" text-anchor="middle" fill="#000" font-family="monospace">Ul</text>
<circle cx="378.00" cy="274.24" r="3.08" fill="#000"/>
<text x="378.00" y="280.40" font-size="5.32" text-anchor="middle" fill="#000" font-family="monospace">44C1A3--0H</text>
<text x="378.00" y="287.68" font-size="6.72" text-anchor="middle" fill="#000" font-family="monospace">Rrouaaik</text>
<circle cx="378.00" cy="322.74" r="3.08" fill="#000"/>
<text x="378.00" y="328.90" font-size="5.32" text-anchor="middle" fill="#000" font-family="monospace">54M0V0X-0H</text>
<text x="378.00" y="336.18" font-size="6.72" text-anchor="middle" fill="#000" font-family="monospace">Strsoemmai</text>
<text x="28.00" y="28.00" font-size="10" text-anchor="start" fill="#000" font-family="monospace">CAS-A</text>
</svg>